<svg width="26" height="32" viewBox="0 0 26 32" fill="none" xmlns="http://www.w3.org/2000/svg">
<path d="M22.4997 6.49984H19.333C19.333 3.00067 16.4988 0.166504 12.9997 0.166504C9.50051 0.166504 6.66634 3.00067 6.66634 6.49984H3.49967C1.75801 6.49984 0.333008 7.92484 0.333008 9.6665V28.6665C0.333008 30.4082 1.75801 31.8332 3.49967 31.8332H22.4997C24.2413 31.8332 25.6663 30.4082 25.6663 28.6665V9.6665C25.6663 7.92484 24.2413 6.49984 22.4997 6.49984ZM12.9997 3.33317C14.7413 3.33317 16.1663 4.75817 16.1663 6.49984H9.83301C9.83301 4.75817 11.258 3.33317 12.9997 3.33317ZM22.4997 28.6665H3.49967V9.6665H6.66634V12.8332C6.66634 13.704 7.37884 14.4165 8.24967 14.4165C9.12051 14.4165 9.83301 13.704 9.83301 12.8332V9.6665H16.1663V12.8332C16.1663 13.704 16.8788 14.4165 17.7497 14.4165C18.6205 14.4165 19.333 13.704 19.333 12.8332V9.6665H22.4997V28.6665Z" fill="#002F52"/>
</svg>
